<svg width="62" height="62" viewBox="0 0 62 62" fill="none" xmlns="http://www.w3.org/2000/svg">
<circle cx="31" cy="31" r="31" fill="#252525"/>
<mask id="path-2-inside-1" fill="white">
<path d="M28 22V27.5H23.5V32.5H28V46H33.5V32.5H38V27.5H33.5V23C33.6326 22.0465 34.0381 21.7808 35 21.5H38.5V17H33C30.3391 17.7484 29.0933 18.5863 28 22Z"/>
</mask>
<path d="M28 27.5V37.5H38V27.5H28ZM28 22L18.4765 18.95L18 20.4378V22H28ZM33 17V7H31.6204L30.2923 7.37356L33 17ZM38.5 17H48.5V7H38.5V17ZM38.5 21.5V31.5H48.5V21.5H38.5ZM35 21.5V11.5H33.5702L32.1978 11.9006L35 21.5ZM33.5 23L23.5953 21.6229L23.5 22.3081V23H33.5ZM33.5 27.5H23.5V37.5H33.5V27.5ZM38 27.5H48V17.5H38V27.5ZM38 32.5V42.5H48V32.5H38ZM33.5 32.5V22.5H23.5V32.5H33.5ZM33.5 46V56H43.5V46H33.5ZM28 46H18V56H28V46ZM28 32.5H38V22.5H28V32.5ZM23.5 32.5H13.5V42.5H23.5V32.5ZM23.5 27.5V17.5H13.5V27.5H23.5ZM38 27.5V22H18V27.5H38ZM37.5235 25.05C37.8503 24.0296 37.7695 24.8444 36.7406 25.8062C35.7092 26.7702 34.7531 26.895 35.7077 26.6264L30.2923 7.37356C28.5861 7.85349 25.6765 8.77144 23.0837 11.1949C20.4933 13.6161 19.2429 16.5567 18.4765 18.95L37.5235 25.05ZM33 27H38.5V7H33V27ZM28.5 17V21.5H48.5V17H28.5ZM38.5 11.5H35V31.5H38.5V11.5ZM32.1978 11.9006C31.6533 12.0596 29.2551 12.7048 27.1422 14.6627C24.5794 17.0374 23.8358 19.893 23.5953 21.6229L43.4047 24.3771C43.2968 25.1535 42.8223 27.3995 40.7358 29.3328C39.0993 30.8493 37.3848 31.2212 37.8022 31.0994L32.1978 11.9006ZM23.5 23V27.5H43.5V23H23.5ZM33.5 37.5H38V17.5H33.5V37.5ZM28 27.5V32.5H48V27.5H28ZM38 22.5H33.5V42.5H38V22.5ZM23.5 32.5V46H43.5V32.5H23.5ZM33.5 36H28V56H33.5V36ZM38 46V32.5H18V46H38ZM28 22.5H23.5V42.5H28V22.5ZM33.5 32.5V27.5H13.5V32.5H33.5ZM23.5 37.5H28V17.5H23.5V37.5Z" fill="#F2F2F2" mask="url(#path-2-inside-1)"/>
</svg>
