<svg width="62" height="62" viewBox="0 0 62 62" fill="none" xmlns="http://www.w3.org/2000/svg">
<circle cx="31" cy="31" r="31" fill="#252525"/>
<rect x="16" y="17" width="29" height="29" rx="2" fill="#F2F2F2"/>
<circle cx="31" cy="31" r="6" fill="#545454"/>
<rect x="36" y="20" width="6" height="6" rx="1" fill="#545454"/>
<mask id="path-5-inside-1" fill="white">
<path d="M22 29H19.5V42.5H42V29H39.5C39.8671 36.9827 36 40.5 30.5 40.5C25 40.5 21.8722 36.7087 22 29Z"/>
</mask>
<path d="M19.5 29V19H9.5V29H19.5ZM22 29L31.9986 29.1658L32.1672 19H22V29ZM39.5 29V19H29.0295L29.5106 29.4594L39.5 29ZM42 29H52V19H42V29ZM42 42.5V52.5H52V42.5H42ZM19.5 42.5H9.5V52.5H19.5V42.5ZM19.5 39H22V19H19.5V39ZM12.0014 28.8342C11.9186 33.8291 12.825 39.2823 16.1796 43.6937C19.8698 48.5466 25.2448 50.5 30.5 50.5V30.5C30.269 30.5 30.4754 30.4615 30.9143 30.6576C31.3991 30.8743 31.8241 31.2256 32.0996 31.5878C32.3413 31.9057 32.2984 32.0069 32.2001 31.6152C32.0986 31.211 31.9776 30.4316 31.9986 29.1658L12.0014 28.8342ZM30.5 50.5C35.415 50.5 40.8441 48.8599 44.794 44.25C48.6106 39.7955 49.744 34.0756 49.4894 28.5406L29.5106 29.4594C29.5648 30.6399 29.4429 31.2828 29.3757 31.5287C29.3164 31.7459 29.3277 31.5623 29.6064 31.237C29.8986 30.896 30.2593 30.6636 30.5475 30.5477C30.796 30.4477 30.8223 30.5 30.5 30.5V50.5ZM39.5 39H42V19H39.5V39ZM32 29V42.5H52V29H32ZM42 32.5H19.5V52.5H42V32.5ZM29.5 42.5V29H9.5V42.5H29.5Z" fill="#545454" mask="url(#path-5-inside-1)"/>
</svg>
